<?xml version="1.0" encoding="UTF-8"?>
<!--Generator: Apple Native CoreSVG 341-->
<!DOCTYPE svg
PUBLIC "-//W3C//DTD SVG 1.1//EN"
       "http://www.w3.org/Graphics/SVG/1.1/DTD/svg11.dtd">
<svg version="1.1" xmlns="http://www.w3.org/2000/svg" xmlns:xlink="http://www.w3.org/1999/xlink" viewBox="0 0 508.789 509.18">
 <g>
  <rect height="509.18" opacity="0" width="508.789" x="0" y="0"/>
  <path d="M193.359 500.391C213.086 505.859 233.398 508.789 254.297 508.789C394.727 508.789 508.789 394.922 508.789 254.492C508.789 233.789 506.055 213.672 500.781 194.531L368.75 233.203C370.117 240.039 370.898 247.07 370.898 254.492C370.898 318.945 318.75 370.898 254.688 371.094C246.875 371.094 239.453 370.508 232.227 368.75ZM494.922 175.391C488.477 155.078 479.688 135.938 468.359 117.773L355.664 197.656C358.594 202.93 361.133 208.594 362.891 214.453ZM456.836 101.758C426.758 60.5469 384.766 30.0781 335.547 14.6484L296.289 147.07C315.234 153.711 331.836 165.625 343.945 181.445ZM316.406 8.78906C296.484 3.125 275.586 0 254.297 0C113.867 0 0 114.062 0 254.492C0 276.172 3.125 297.266 8.98438 317.383L140.82 278.516C139.062 270.703 138.086 262.891 138.086 254.492C138.086 190.82 190.82 138.672 254.883 138.672C262.5 138.672 269.922 139.648 277.344 141.211ZM14.8438 336.328C21.4844 356.25 30.6641 375 41.6016 392.773L154.297 313.672C151.367 308.398 149.023 302.734 147.07 297.07ZM53.5156 408.984C83.3984 449.219 125.977 480.273 174.414 494.727L213.086 363.086C194.727 356.641 178.125 344.922 166.406 329.688ZM254.297 347.656C305.859 347.656 347.656 305.859 347.656 254.492C347.656 202.93 305.859 161.133 254.297 161.133C202.93 161.133 161.133 202.93 161.133 254.492C161.133 305.859 202.93 347.656 254.297 347.656ZM254.297 315.234C220.703 315.234 193.555 288.086 193.555 254.492C193.555 220.703 220.703 193.75 254.297 193.75C288.086 193.75 315.039 220.703 315.039 254.492C315.039 288.086 288.086 315.234 254.297 315.234ZM254.297 290.43C274.023 290.43 290.43 274.219 290.43 254.492C290.43 234.766 274.023 218.359 254.297 218.359C234.57 218.359 218.359 234.766 218.359 254.492C218.359 274.219 234.57 290.43 254.297 290.43Z" fill="black" fill-opacity="0.85"/>
 </g>
</svg>
